<?xml version="1.0" standalone="no"?>
<!DOCTYPE svg PUBLIC "-//W3C//DTD SVG 20010904//EN"
 "http://www.w3.org/TR/2001/REC-SVG-20010904/DTD/svg10.dtd">
<svg version="1.0" xmlns="http://www.w3.org/2000/svg"
 width="305.000000pt" height="305.000000pt" viewBox="0 0 305.000000 305.000000"
 preserveAspectRatio="xMidYMid meet">
<metadata>
Created by potrace 1.14, written by Peter Selinger 2001-2017
</metadata>
<g transform="translate(0.000000,305.000000) scale(0.100000,-0.100000)"
fill="#000000" stroke="none">
<path d="M0 1525 l0 -1525 1525 0 1525 0 0 1525 0 1525 -1525 0 -1525 0 0
-1525z m1110 1238 c35 -32 54 -93 42 -138 -16 -58 -102 -90 -177 -65 -85 28
-87 178 -2 215 53 23 102 19 137 -12z m980 -12 c21 -21 31 -42 36 -79 l6 -51
97 -62 c132 -87 318 -274 384 -387 91 -155 182 -401 158 -425 -14 -14 -11 -20
-54 113 -38 118 -102 254 -162 345 -73 108 -235 258 -379 350 l-59 37 -52 -17
c-66 -23 -117 -15 -143 23 -39 56 -37 115 6 157 20 21 34 25 79 25 47 0 59 -4
83 -29z m-1256 -190 c3 -5 -34 -40 -82 -79 -220 -176 -355 -377 -422 -630 -23
-90 -42 -204 -34 -211 3 -3 24 -13 47 -21 32 -12 46 -25 61 -57 24 -50 38 -55
156 -52 89 2 115 -4 104 -23 -4 -6 -40 -8 -104 -3 -54 4 -107 4 -117 1 -11 -3
-27 -24 -37 -45 -19 -44 -79 -81 -131 -81 -42 0 -110 36 -123 66 -28 60 -2
154 51 183 57 32 59 35 73 129 37 251 177 509 374 693 133 124 171 151 184
130z m724 -263 c11 -18 31 -64 45 -103 14 -38 35 -90 46 -115 36 -78 40 -75
-129 -75 -105 0 -150 3 -150 11 0 31 102 264 132 302 17 20 35 14 56 -20z
m554 -209 c-4 -85 -32 -243 -45 -256 -10 -10 -23 -4 -62 27 -28 22 -78 53
-113 70 -47 22 -63 35 -60 48 3 19 186 144 233 160 45 15 50 10 47 -49z
m-1119 25 c38 -19 226 -156 227 -165 0 -3 -33 -22 -72 -42 -40 -20 -97 -56
-127 -82 -29 -25 -58 -44 -64 -42 -10 3 -20 324 -10 339 6 11 10 10 46 -8z
m704 -245 c128 -39 219 -89 354 -192 95 -72 143 -84 183 -44 19 19 26 36 26
66 0 30 4 39 14 35 21 -8 36 -51 36 -104 0 -37 -6 -55 -25 -79 -30 -34 -82
-55 -118 -46 -22 6 -30 0 -65 -52 -110 -158 -259 -260 -432 -294 -94 -18 -95
-20 -81 -126 6 -48 25 -149 42 -223 48 -215 38 -332 -36 -400 -20 -19 -37 -25
-72 -25 -39 0 -49 5 -78 37 -62 67 -70 166 -29 343 32 140 56 290 52 334 -3
34 -3 34 -88 56 -110 27 -156 46 -235 96 -71 44 -142 117 -199 203 -34 52 -40
56 -76 56 -110 0 -178 108 -119 191 29 41 44 37 44 -12 0 -31 6 -46 24 -60 44
-36 103 -16 216 75 155 125 359 200 517 190 42 -2 108 -14 145 -25z m1153
-245 c56 -34 84 -127 56 -186 -16 -34 -61 -68 -90 -68 -22 0 -36 -32 -36 -83
0 -62 -43 -204 -94 -313 -121 -256 -330 -478 -570 -604 -65 -34 -89 -43 -101
-35 -9 6 -34 53 -56 105 -22 52 -51 120 -66 152 -14 31 -23 63 -20 72 3 8 34
30 69 47 35 18 77 42 94 55 29 22 31 28 26 72 -3 41 0 53 20 77 20 23 33 28
72 29 42 1 51 -3 77 -32 40 -45 40 -93 -2 -134 -29 -29 -33 -30 -92 -25 -49 4
-66 2 -87 -12 -14 -10 -53 -33 -87 -50 -35 -17 -63 -33 -63 -36 0 -8 67 -171
94 -227 15 -32 32 -58 39 -58 6 0 55 25 110 56 153 87 268 186 341 293 25 36
68 98 95 136 85 117 128 218 166 386 21 94 18 110 -20 128 -41 19 -71 48 -85
82 l-12 29 -124 0 c-104 0 -124 2 -124 15 0 12 20 15 120 15 l120 0 21 43 c38
75 55 87 122 87 37 0 69 -6 87 -16z m-2545 -401 c11 -73 46 -173 60 -173 8 0
38 10 67 23 29 13 86 34 127 47 l73 24 20 -24 c10 -14 24 -32 31 -40 7 -9 28
-40 49 -70 86 -130 195 -211 421 -315 42 -19 43 -31 12 -100 -37 -84 -55 -129
-55 -141 0 -7 9 -28 20 -46 37 -62 17 -144 -42 -169 -30 -12 -105 -7 -138 11
-30 16 -46 81 -31 130 15 50 49 73 115 80 l50 5 33 80 c18 44 33 87 33 97 0
11 -31 32 -92 63 -50 25 -111 60 -134 76 -23 16 -49 29 -56 29 -7 0 -36 -20
-65 -45 -28 -25 -54 -45 -57 -45 -14 0 -3 20 34 63 22 25 40 49 40 54 0 4 -18
28 -41 53 -22 25 -64 82 -94 127 -30 45 -60 85 -65 88 -11 7 -73 -15 -193 -67
-37 -17 -74 -28 -81 -25 -15 6 -76 183 -76 221 0 42 28 32 35 -11z m395 -563
c17 -31 12 -95 -9 -114 -21 -19 -78 -24 -107 -8 -59 32 -47 133 18 150 40 10
84 -2 98 -28z"/>
<path d="M988 2754 c-29 -15 -58 -61 -58 -91 0 -10 9 -32 20 -50 45 -74 180
-39 180 47 0 26 -28 81 -49 97 -22 17 -60 15 -93 -3z m91 -30 c60 -50 31 -134
-46 -134 -44 0 -56 6 -72 37 -17 34 -13 68 12 90 43 39 66 41 106 7z"/>
<path d="M1985 2763 c-67 -16 -87 -98 -37 -146 58 -55 152 -24 152 51 0 55
-63 107 -115 95z m88 -54 c41 -57 -9 -120 -82 -104 -36 8 -56 38 -53 79 4 45
19 57 70 54 35 -2 49 -9 65 -29z"/>
<path d="M224 1602 c-35 -22 -64 -76 -64 -120 0 -36 44 -88 84 -98 44 -11 93
4 120 37 33 39 41 70 27 112 -25 74 -105 107 -167 69z m111 -26 c13 -8 29 -31
35 -51 33 -100 -85 -164 -165 -89 -24 22 -27 31 -22 72 9 84 80 115 152 68z"/>
<path d="M1445 1767 c-90 -37 -151 -96 -181 -174 -17 -43 -34 -57 -34 -27 0
49 28 102 79 153 41 41 49 52 30 46 -104 -32 -339 -196 -339 -237 0 -19 60
-108 100 -149 59 -59 240 -162 257 -145 2 2 -10 14 -28 26 -41 30 -89 106 -89
142 0 39 14 35 35 -12 58 -130 232 -196 357 -136 57 28 124 91 142 136 17 44
36 53 36 18 0 -33 -38 -105 -71 -132 -16 -14 -29 -27 -29 -30 0 -11 104 36
155 69 81 54 196 184 194 220 0 11 -200 152 -278 196 -25 15 -57 30 -71 34
-23 6 -22 4 8 -20 38 -32 92 -120 92 -152 0 -33 -14 -28 -33 12 -25 52 -90
118 -142 144 -54 27 -147 36 -190 18z m189 -97 c107 -73 113 -248 10 -326 -34
-26 -45 -29 -114 -29 -69 0 -81 3 -119 29 -61 43 -84 93 -79 176 4 78 33 126
96 160 53 29 155 24 206 -10z m186 -169 c0 -11 -4 -22 -9 -25 -12 -8 -34 21
-26 34 11 17 35 11 35 -9z m-560 -11 c0 -13 -7 -20 -20 -20 -19 0 -27 20 -13
33 13 14 33 6 33 -13z"/>
<path d="M1492 1558 c-62 -31 -24 -131 44 -114 56 14 69 91 19 114 -30 14 -33
14 -63 0z"/>
<path d="M2706 1601 c-107 -71 -48 -223 80 -208 57 6 104 47 104 89 0 106
-103 172 -184 119z m128 -22 c22 -18 26 -28 26 -74 0 -71 -15 -85 -90 -85 -49
0 -61 4 -74 22 -19 27 -20 96 -3 119 33 42 99 51 141 18z"/>
<path d="M2125 916 c-19 -14 -18 -15 10 -7 42 11 71 -5 89 -48 11 -27 15 -31
15 -14 1 28 -37 71 -69 78 -15 4 -33 0 -45 -9z"/>
<path d="M2082 850 c0 -14 2 -19 5 -12 2 6 2 18 0 25 -3 6 -5 1 -5 -13z"/>
<path d="M2208 803 c-9 -9 -30 -16 -47 -17 -17 -1 -31 -5 -31 -10 0 -14 69 1
86 19 9 9 14 18 12 20 -2 3 -11 -3 -20 -12z"/>
<path d="M985 428 c-50 -27 -68 -80 -44 -131 14 -31 48 -47 97 -47 42 1 63 13
82 50 13 24 12 24 -13 -2 -14 -16 -32 -28 -39 -29 -7 0 -21 -2 -32 -4 -33 -6
-67 14 -81 50 -20 45 -19 48 10 79 41 45 145 30 145 -22 0 -6 4 -13 10 -17 5
-3 5 6 -1 24 -19 53 -84 77 -134 49z"/>
<path d="M574 645 c-21 -32 -12 -69 22 -91 23 -16 28 -16 60 -1 19 9 34 24 34
33 0 13 -3 13 -17 -4 -29 -33 -56 -35 -83 -7 -20 21 -22 30 -14 53 7 20 18 29
44 33 l35 6 -32 2 c-24 1 -37 -5 -49 -24z"/>
</g>
</svg>
